<?xml version="1.0" encoding="utf-8"?>
<!-- Generator: Adobe Illustrator 16.0.0, SVG Export Plug-In . SVG Version: 6.00 Build 0)  -->
<!DOCTYPE svg PUBLIC "-//W3C//DTD SVG 1.1//EN" "http://www.w3.org/Graphics/SVG/1.1/DTD/svg11.dtd">
<svg version="1.1" id="Layer_1" xmlns="http://www.w3.org/2000/svg" xmlns:xlink="http://www.w3.org/1999/xlink" x="0px" y="0px"
	 width="403.559px" height="132.17px" viewBox="0 0 403.559 132.17" style="enable-background:new 0 0 403.559 132.17;"
	 xml:space="preserve">
<g>
	<g id="Funnel">
		<path d="M141.636,60.109c0.681,0.577,1.406,1.188,2.182,1.836c0.395,0.33,0.773,0.647,1.142,0.957
			c0.163-10.457,1.127-20.181,2.682-28.491c-0.905-0.071-1.814-0.113-2.725-0.121C143.132,44.099,142.098,53.819,141.636,60.109z"/>
		<path d="M147.339,96.088c-1.167-6.722-1.952-14.304-2.258-22.402c-0.082-0.072-0.16-0.14-0.243-0.212
			c-0.822-0.711-1.919-1.641-3.298-2.795c0.393,6.018,1.399,16.08,3.224,26.348c0.639-0.177,1.251-0.378,1.827-0.61
			C146.849,96.313,147.096,96.202,147.339,96.088z"/>
		<path d="M142.846,63.107c-0.465-0.389-0.907-0.761-1.337-1.124c-0.113,1.813-0.166,3.221-0.166,4.102
			c0,0.604,0.026,1.46,0.078,2.52c1.447,1.207,2.643,2.212,3.592,3.022c-0.05-1.825-0.078-3.672-0.078-5.542
			c0-0.409,0.006-0.812,0.009-1.218C144.292,64.319,143.594,63.733,142.846,63.107z"/>
		<path d="M145.198,32.784c0.915,0.013,1.825,0.055,2.73,0.13c0.31-1.55,0.641-3.047,0.991-4.486
			c-0.968-0.062-1.9-0.086-2.818-0.096C145.782,29.807,145.481,31.294,145.198,32.784z"/>
		<path d="M147.616,97.619c-0.153,0.067-0.3,0.138-0.457,0.202c-0.671,0.271-1.38,0.503-2.123,0.705
			c0.27,1.453,0.555,2.905,0.858,4.348c0.914-0.237,1.791-0.514,2.628-0.837C148.201,100.614,147.898,99.14,147.616,97.619z"/>
		<path d="M260.33,51.492c0,0-15.524,2.656-31.158-2.634c-13.425-4.542-26.93-16.55-30.759-22.743
			C185.533,5.28,165.366-1.465,160.016,0.257c-6.267,2.018-10.647,13.599-13.583,26.571c0.932,0.016,1.879,0.048,2.862,0.115
			c3.157-12.115,7.754-19.753,12.875-19.753c9.521,0,17.238,26.368,17.238,58.895c0,32.526-7.717,58.895-17.238,58.895
			c-5.358,0-10.145-8.353-13.306-21.454c-0.847,0.317-1.733,0.59-2.653,0.826c2.935,13.368,7.378,25.491,13.804,27.56
			c5.35,1.723,25.517-5.023,38.396-25.856c3.83-6.194,17.334-18.202,30.759-22.744c15.634-5.29,31.158-2.634,31.158-2.634
			c6.942-4.788,5.984-14.593,5.984-14.593S267.272,56.28,260.33,51.492z"/>
	</g>
	<g id="LESS">
		<path id="L" d="M0,81.646l0.478-7.228L1.07,58.07l0.136-7.546c0.375,0.015,0.708,0.022,0.993,0.022
			c0.301,0,0.64-0.007,1.016-0.022L2.416,68.308L1.995,80.209l4.671,0.022c3.341,0,5.642-0.015,6.903-0.045
			c1.26-0.031,2.49-0.084,3.691-0.161c-0.062,0.609-0.092,1.148-0.092,1.62c-3.222-0.016-5.935-0.023-8.138-0.023L0,81.646z"/>
		<path id="E" d="M66.44,82.661c-0.217,1.02-0.38,2.053-0.489,3.1c-2.256,0.652-4.281,1.107-6.076,1.366
			c-1.794,0.258-3.629,0.387-5.504,0.387c-3.263,0-6.151-0.44-8.667-1.323c-2.514-0.883-4.669-2.349-6.463-4.399
			c-1.794-2.05-3.072-4.353-3.833-6.905c-0.761-2.553-1.141-5.27-1.141-8.149c0-3.774,0.652-7.312,1.957-10.612
			c1.305-3.299,3.452-6.037,6.443-8.209c2.99-2.172,6.701-3.258,11.132-3.258c3.044,0,5.804,0.564,8.278,1.692
			c2.473,1.128,4.397,2.971,5.77,5.526c1.372,2.555,2.06,5.587,2.06,9.093c0,0.652-0.027,1.278-0.082,1.875L37.53,62.884
			c-0.137,1.765-0.204,3.093-0.204,3.989c0,2.578,0.38,5.075,1.142,7.49s1.913,4.436,3.452,6.064
			c1.538,1.629,3.381,2.836,5.532,3.623c2.151,0.787,4.424,1.18,6.82,1.18C57.919,85.229,61.976,84.375,66.44,82.661z
			 M37.896,60.641l29.033,0.042c-0.027-1.875-0.136-3.316-0.327-4.323c-0.19-1.005-0.544-2.038-1.062-3.099
			c-0.518-1.06-1.138-1.979-1.858-2.753c-0.722-0.775-1.565-1.427-2.532-1.958c-0.966-0.529-2.048-0.93-3.246-1.202
			c-1.198-0.271-2.45-0.408-3.756-0.408c-1.443,0-2.859,0.163-4.248,0.489s-2.654,0.776-3.797,1.347
			c-1.144,0.57-2.213,1.298-3.206,2.181c-0.994,0.884-1.81,1.843-2.45,2.875c-0.64,1.033-1.13,2.019-1.47,2.956
			C38.638,57.726,38.277,59.01,37.896,60.641z"/>
		<path id="S_1_" d="M80.689,91.212c-0.07-1.657-0.207-3.123-0.414-4.398c2.726,1.207,5.296,2.053,7.711,2.536
			c2.415,0.483,4.624,0.724,6.625,0.724c2.657,0,4.925-0.377,6.806-1.138c1.88-0.758,3.304-1.878,4.27-3.36
			c0.966-1.482,1.45-3.033,1.45-4.654c0-0.723-0.078-1.421-0.234-2.093c-0.154-0.672-0.404-1.344-0.75-2.018
			c-0.345-0.672-0.733-1.293-1.165-1.861c-0.432-0.568-1.035-1.215-1.812-1.939c-0.776-0.724-1.683-1.534-2.718-2.43
			c-1.035-0.896-2.657-2.258-4.864-4.084c-2.209-1.828-4.029-3.404-5.461-4.731c-1.431-1.327-2.621-2.672-3.57-4.033
			c-0.949-1.363-1.623-2.611-2.019-3.749c-0.397-1.138-0.594-2.292-0.594-3.464c0-2,0.629-3.938,1.888-5.817
			c1.26-1.878,3.071-3.318,5.436-4.318c2.362-0.999,5.356-1.499,8.979-1.499c3.037,0,6.452,0.396,10.248,1.19
			c0.034,1.519,0.137,2.985,0.311,4.399c-2.208-0.931-4.184-1.561-5.926-1.889c-1.742-0.328-3.511-0.491-5.306-0.491
			c-2.242,0-4.313,0.336-6.21,1.008s-3.32,1.655-4.269,2.948c-0.95,1.292-1.424,2.696-1.424,4.213c0,0.827,0.104,1.603,0.311,2.326
			c0.207,0.725,0.535,1.457,0.983,2.199c0.448,0.741,1.027,1.499,1.734,2.274c0.707,0.775,1.621,1.671,2.743,2.688
			c1.121,1.017,2.743,2.414,4.865,4.188c2.122,1.774,3.701,3.119,4.736,4.033c1.036,0.913,1.923,1.749,2.665,2.508
			c0.742,0.758,1.45,1.593,2.122,2.507c0.673,0.914,1.217,1.801,1.631,2.662c0.413,0.863,0.725,1.733,0.931,2.612
			c0.207,0.879,0.311,1.765,0.311,2.662c0,2.173-0.639,4.224-1.915,6.154c-1.277,1.93-3.131,3.447-5.563,4.55
			s-5.356,1.654-8.772,1.654c-1.278,0-2.873-0.104-4.788-0.311c-1.916-0.208-3.452-0.423-4.607-0.646
			C83.906,92.102,82.449,91.73,80.689,91.212z"/>
		<path id="S" d="M118.372,100.98c-0.096-2.299-0.287-4.335-0.575-6.109c3.785,1.678,7.355,2.852,10.709,3.522
			c3.354,0.671,6.42,1.007,9.201,1.007c3.689,0,6.839-0.526,9.451-1.579c2.611-1.054,4.587-2.609,5.93-4.667
			c1.341-2.06,2.012-4.212,2.012-6.464c0-1.004-0.108-1.974-0.324-2.907c-0.215-0.933-0.563-1.867-1.042-2.802
			c-0.479-0.933-1.019-1.795-1.617-2.584c-0.6-0.79-1.437-1.687-2.516-2.692c-1.078-1.005-2.336-2.13-3.774-3.375
			c-1.437-1.244-3.69-3.135-6.756-5.673c-3.067-2.537-5.595-4.727-7.583-6.569c-1.989-1.843-3.643-3.709-4.959-5.6
			c-1.318-1.893-2.252-3.627-2.803-5.206c-0.551-1.579-0.827-3.183-0.827-4.811c0-2.777,0.874-5.469,2.624-8.077
			c1.749-2.609,4.264-4.608,7.547-5.997c3.282-1.388,7.44-2.082,12.47-2.082c4.217,0,8.96,0.55,14.232,1.653
			c0.047,2.108,0.19,4.146,0.431,6.109c-3.066-1.293-5.81-2.167-8.229-2.623c-2.42-0.456-4.877-0.683-7.367-0.683
			c-3.116,0-5.991,0.467-8.625,1.4c-2.636,0.935-4.613,2.299-5.929,4.094c-1.319,1.795-1.977,3.745-1.977,5.851
			c0,1.149,0.144,2.227,0.431,3.232s0.743,2.024,1.365,3.052c0.623,1.029,1.425,2.083,2.409,3.159
			c0.981,1.076,2.251,2.321,3.809,3.733c1.556,1.412,3.81,3.352,6.756,5.816c2.947,2.464,5.139,4.332,6.577,5.6
			c1.437,1.269,2.67,2.429,3.701,3.483c1.031,1.053,2.013,2.213,2.947,3.482c0.935,1.27,1.69,2.501,2.265,3.698
			c0.574,1.197,1.006,2.405,1.293,3.626c0.287,1.22,0.431,2.453,0.431,3.696c0,3.018-0.888,5.865-2.659,8.545
			c-1.774,2.681-4.349,4.788-7.727,6.319c-3.378,1.531-7.439,2.297-12.183,2.297c-1.773,0-3.989-0.144-6.649-0.432
			c-2.66-0.287-4.792-0.587-6.397-0.897C122.84,102.214,120.816,101.698,118.372,100.98z"/>
	</g>
	<g id="SCSS">
		<path id="S_4_" d="M269.892,79.283c0-0.548-0.042-1.18-0.126-1.896c2.658,1.264,5.084,1.896,7.278,1.896
			c1.252,0,2.384-0.204,3.397-0.611c1.013-0.406,1.797-1.013,2.353-1.82s0.834-1.729,0.834-2.767c0-0.519-0.089-1.01-0.264-1.473
			c-0.174-0.463-0.46-0.939-0.858-1.431s-0.972-1.119-1.722-1.883c-0.749-0.765-2.095-1.955-4.036-3.571l-1.666-1.391
			c-0.578-0.506-1.133-1.033-1.668-1.582c-0.533-0.548-0.979-1.057-1.329-1.528c-0.352-0.471-0.615-0.893-0.791-1.266
			c-0.177-0.372-0.313-0.783-0.412-1.233c-0.098-0.45-0.146-0.913-0.146-1.391c0-1.139,0.308-2.199,0.927-3.184
			c0.618-0.983,1.536-1.764,2.759-2.339c1.222-0.576,2.774-0.865,4.656-0.865c1.306,0,2.97,0.19,4.991,0.569
			c0.015,0.534,0.078,1.124,0.19,1.77c-1.294-0.408-2.37-0.682-3.229-0.821c-0.857-0.142-1.674-0.211-2.448-0.211
			c-1.392,0-2.539,0.228-3.439,0.685s-1.597,1.068-2.089,1.834c-0.494,0.767-0.739,1.572-0.739,2.415
			c0,0.449,0.069,0.889,0.211,1.318c0.141,0.429,0.371,0.864,0.692,1.307c0.319,0.443,0.745,0.928,1.275,1.455
			c0.532,0.527,1.162,1.127,1.893,1.802c0.729,0.674,1.699,1.539,2.91,2.593c1.212,1.054,2.066,1.803,2.566,2.246
			s0.975,0.917,1.424,1.423c0.451,0.505,0.816,1.007,1.099,1.506c0.281,0.5,0.487,1.016,0.621,1.549
			c0.135,0.535,0.201,1.097,0.201,1.687c0,1.321-0.335,2.48-1,3.478c-0.668,0.998-1.651,1.754-2.951,2.267
			c-1.298,0.512-2.756,0.77-4.37,0.77c-1.039,0-2.051-0.081-3.034-0.242C272.87,80.185,271.549,79.831,269.892,79.283z"/>
		<path id="C" d="M317.334,80.132c-0.225,0.925-0.385,1.782-0.474,2.571c-2.865,0.563-5.538,0.845-8.019,0.845
			c-2.348,0-4.539-0.327-6.582-0.98c-2.041-0.653-3.794-1.707-5.258-3.16c-1.467-1.454-2.558-3.279-3.268-5.477
			c-0.71-2.196-1.064-4.5-1.064-6.911c0-3.29,0.559-6.422,1.674-9.397c1.114-2.973,2.897-5.322,5.346-7.046
			c2.448-1.725,5.758-2.586,9.93-2.586c3.046,0,5.943,0.417,8.696,1.251c0.021,0.745,0.101,1.534,0.236,2.369
			c-2.348-0.722-4.184-1.189-5.515-1.404c-1.33-0.214-2.549-0.322-3.654-0.322c-2.369,0-4.465,0.456-6.293,1.369
			c-1.827,0.913-3.344,2.203-4.551,3.87c-1.206,1.667-2.063,3.532-2.572,5.594c-0.509,2.063-0.76,4.129-0.76,6.202
			c0,2.23,0.281,4.314,0.846,6.253c0.564,1.938,1.464,3.514,2.706,4.731c1.241,1.216,2.765,2.146,4.568,2.788
			c1.804,0.642,3.699,0.963,5.683,0.963c1.106,0,2.277-0.107,3.52-0.321C313.768,81.119,315.37,80.718,317.334,80.132z"/>
		<path id="S_3_" d="M324.043,91.212c-0.067-1.657-0.207-3.123-0.414-4.398c2.727,1.207,5.298,2.053,7.712,2.536
			c2.416,0.483,4.625,0.724,6.627,0.724c2.655,0,4.923-0.377,6.804-1.138c1.881-0.758,3.305-1.878,4.27-3.36
			c0.967-1.482,1.452-3.033,1.452-4.654c0-0.723-0.078-1.421-0.235-2.093c-0.155-0.672-0.403-1.344-0.749-2.018
			c-0.347-0.672-0.733-1.293-1.165-1.861s-1.035-1.215-1.812-1.939s-1.683-1.534-2.718-2.43c-1.034-0.896-2.656-2.258-4.863-4.084
			c-2.211-1.828-4.029-3.404-5.462-4.731c-1.432-1.327-2.621-2.672-3.57-4.033c-0.949-1.363-1.624-2.611-2.02-3.749
			c-0.396-1.138-0.595-2.292-0.595-3.464c0-2,0.63-3.938,1.89-5.817c1.26-1.878,3.069-3.318,5.435-4.318
			c2.363-0.999,5.356-1.499,8.979-1.499c3.037,0,6.452,0.396,10.248,1.19c0.034,1.519,0.138,2.985,0.311,4.399
			c-2.208-0.931-4.185-1.561-5.926-1.889c-1.742-0.328-3.51-0.491-5.305-0.491c-2.243,0-4.314,0.336-6.211,1.008
			c-1.898,0.672-3.321,1.655-4.269,2.948c-0.951,1.292-1.426,2.696-1.426,4.213c0,0.827,0.104,1.603,0.311,2.326
			c0.207,0.725,0.535,1.457,0.984,2.199c0.447,0.741,1.026,1.499,1.733,2.274c0.707,0.775,1.622,1.671,2.744,2.688
			c1.12,1.017,2.742,2.414,4.864,4.188c2.123,1.774,3.702,3.119,4.736,4.033c1.035,0.913,1.923,1.749,2.665,2.508
			c0.742,0.758,1.45,1.593,2.123,2.507c0.671,0.914,1.215,1.801,1.629,2.662c0.414,0.863,0.725,1.733,0.932,2.612
			s0.311,1.765,0.311,2.662c0,2.173-0.639,4.224-1.915,6.154c-1.275,1.93-3.131,3.447-5.563,4.55
			c-2.432,1.103-5.356,1.654-8.773,1.654c-1.277,0-2.871-0.104-4.787-0.311c-1.914-0.208-3.451-0.423-4.606-0.646
			C327.261,92.102,325.804,91.73,324.043,91.212z"/>
		<g id="S_2_">
			<path d="M361.727,100.98c-0.096-2.299-0.287-4.335-0.573-6.109c3.784,1.678,7.354,2.852,10.708,3.522
				c3.354,0.671,6.421,1.007,9.201,1.007c3.689,0,6.839-0.526,9.45-1.579c2.612-1.054,4.589-2.609,5.932-4.667
				c1.339-2.06,2.011-4.212,2.011-6.464c0-1.004-0.106-1.974-0.322-2.907c-0.216-0.933-0.565-1.867-1.043-2.802
				c-0.48-0.933-1.019-1.795-1.617-2.584s-1.437-1.687-2.515-2.692c-1.079-1.005-2.336-2.13-3.774-3.375
				c-1.438-1.244-3.69-3.135-6.756-5.673c-3.067-2.537-5.596-4.727-7.584-6.569c-1.988-1.843-3.642-3.709-4.959-5.6
				c-1.318-1.893-2.253-3.627-2.803-5.206c-0.551-1.579-0.827-3.183-0.827-4.811c0-2.777,0.874-5.469,2.625-8.077
				c1.747-2.609,4.264-4.608,7.546-5.997s7.439-2.082,12.47-2.082c4.216,0,8.961,0.55,14.231,1.653
				c0.047,2.108,0.192,4.146,0.432,6.109c-3.066-1.293-5.811-2.167-8.229-2.623c-2.42-0.456-4.876-0.683-7.367-0.683
				c-3.115,0-5.99,0.467-8.625,1.4c-2.637,0.935-4.613,2.299-5.931,4.094c-1.318,1.795-1.975,3.745-1.975,5.851
				c0,1.149,0.142,2.227,0.43,3.232s0.744,2.024,1.365,3.052c0.623,1.029,1.425,2.083,2.409,3.159
				c0.98,1.076,2.251,2.321,3.809,3.733c1.556,1.412,3.809,3.352,6.757,5.816c2.946,2.464,5.14,4.332,6.576,5.6
				c1.438,1.269,2.67,2.429,3.702,3.483c1.029,1.053,2.013,2.213,2.945,3.482c0.935,1.27,1.691,2.501,2.265,3.698
				c0.575,1.197,1.007,2.405,1.296,3.626c0.286,1.22,0.43,2.453,0.43,3.696c0,3.018-0.889,5.865-2.659,8.545
				c-1.774,2.681-4.349,4.788-7.727,6.319c-3.377,1.531-7.44,2.297-12.183,2.297c-1.774,0-3.989-0.144-6.649-0.432
				c-2.659-0.287-4.791-0.587-6.397-0.897C366.194,102.214,364.171,101.698,361.727,100.98z"/>
		</g>
	</g>
</g>
</svg>
